<svg id="Capa_1" enable-background="new 0 0 512 512" height="512" viewBox="0 0 512 512" width="512" xmlns="http://www.w3.org/2000/svg"><g><path d="m210.98 430.097h-36.304c-.391-28.614-23.776-51.774-52.482-51.774s-52.09 23.16-52.481 51.774h-47.213c-4.136 0-7.5-3.364-7.5-7.5v-34.85h30.734c4.142 0 7.5-3.358 7.5-7.5v-38.25l70.188-11.693c1.213-.204 2.396-.719 3.368-1.475l79.34-61.621c9.159-7.115 20.594-11.033 32.199-11.033h58.671c4.142 0 7.5-3.358 7.5-7.5s-3.358-7.5-7.5-7.5h-58.67c-14.921 0-29.624 5.039-41.401 14.187l-67.239 52.222v-110.987h30.73c4.142 0 7.5-3.358 7.5-7.5v-79.24c0-4.142-3.358-7.5-7.5-7.5s-7.5 3.358-7.5 7.5v71.74h-99.69v-137.92h99.69v33.5c0 4.142 3.358 7.5 7.5 7.5s7.5-3.358 7.5-7.5v-41c0-4.142-3.358-7.5-7.5-7.5h-114.69c-4.142 0-7.5 3.358-7.5 7.5v152.92c0 4.142 3.358 7.5 7.5 7.5h30.73v126.325l-45.123 7.517c-18.158 3.026-31.337 18.583-31.337 36.988v55.17c0 12.407 10.093 22.5 22.5 22.5h49.183c6.235 22.031 26.511 38.226 50.511 38.226s44.276-16.194 50.512-38.226h38.274c4.142 0 7.5-3.358 7.5-7.5s-3.358-7.5-7.5-7.5zm-119.52-233.5h23.23v119.956l-23.23 3.87zm-57.658 148.638 4.432-.738v28.251h-23.234v-5.32c0-11.044 7.908-20.377 18.802-22.193zm88.393 123.088c-20.678 0-37.5-16.822-37.5-37.5s16.822-37.5 37.5-37.5 37.5 16.822 37.5 37.5c0 20.677-16.822 37.5-37.5 37.5z"/><path d="m496.175 331.575-48.545-15.083-33.773-47.133c-12.642-17.646-33.153-28.182-54.866-28.182h-29.3c-4.142 0-7.5 3.358-7.5 7.5s3.358 7.5 7.5 7.5h29.3c16.888 0 32.84 8.193 42.673 21.919l35.24 49.18c.952 1.328 2.311 2.309 3.872 2.793l50.948 15.83c3.156.982 5.277 3.862 5.277 7.169v.565h-30.734c-4.142 0-7.5 3.358-7.5 7.5v38.23c0 4.142 3.358 7.5 7.5 7.5h30.733v6.98l-32.501 16.255h-22.212c-.391-28.614-23.776-51.774-52.482-51.774-28.705 0-52.09 23.16-52.482 51.774h-93.653c-4.142 0-7.5 3.358-7.5 7.5s3.358 7.5 7.5 7.5h95.624c6.235 22.031 26.511 38.226 50.512 38.226s44.276-16.194 50.512-38.226h25.953c1.165 0 2.313-.271 3.355-.792l38.23-19.12c2.54-1.27 4.145-3.868 4.145-6.708v-65.41c-.001-9.913-6.36-18.549-15.826-21.493zm-106.37 136.748c-20.678 0-37.5-16.822-37.5-37.5s16.822-37.5 37.5-37.5 37.5 16.822 37.5 37.5c0 20.677-16.822 37.5-37.5 37.5zm83.961-76.461v-23.23h23.234v23.23z"/><path d="m409.949 349.518c6.861-1.471 8.893-5.428 6.096-11.869l-39.662-55.345c-1.408-1.965-3.678-3.131-6.096-3.131h-139.494c-1.666 0-3.285.555-4.601 1.577l-70.369 54.653c-4.857 6.652-3.33 11.127 4.58 13.423l249.524.692zm-176.585-55.346h72.481v40.056l-123.615-.343zm87.481 40.098v-40.098h45.589l28.883 40.305z"/><path d="m275.115 372.748c-4.142 0-7.5 3.358-7.5 7.5s3.358 7.5 7.5 7.5h38.23c4.142 0 7.5-3.358 7.5-7.5s-3.358-7.5-7.5-7.5z"/><path d="m83.965 66.907c-4.142 0-7.5 3.358-7.5 7.5v76.46c0 4.142 3.358 7.5 7.5 7.5s7.5-3.358 7.5-7.5v-30.73h30.73c4.142 0 7.5-3.358 7.5-7.5v-38.23c0-4.142-3.358-7.5-7.5-7.5zm30.73 38.23h-23.23v-23.23h23.23z"/><path d="m122.195 406.323c-13.509 0-24.5 10.991-24.5 24.5s10.991 24.5 24.5 24.5 24.5-10.991 24.5-24.5-10.991-24.5-24.5-24.5zm0 34c-5.238 0-9.5-4.262-9.5-9.5s4.262-9.5 9.5-9.5 9.5 4.262 9.5 9.5-4.262 9.5-9.5 9.5z"/><path d="m389.806 406.323c-13.509 0-24.5 10.991-24.5 24.5s10.991 24.5 24.5 24.5 24.5-10.991 24.5-24.5-10.991-24.5-24.5-24.5zm0 34c-5.238 0-9.5-4.262-9.5-9.5s4.262-9.5 9.5-9.5 9.5 4.262 9.5 9.5-4.262 9.5-9.5 9.5z"/></g></svg>